<svg width="27" height="24" viewBox="0 0 27 24" fill="none" xmlns="http://www.w3.org/2000/svg">
<path d="M3.85714 3L23.1429 21" stroke="black" stroke-width="1.5" stroke-linecap="round" stroke-linejoin="round"/>
<path d="M11.8929 10.6771C11.5594 11.0296 11.3571 11.4928 11.3571 12C11.3571 13.1045 12.3165 14 13.5 14C14.0434 14 14.5396 13.8112 14.9174 13.5" stroke="black" stroke-width="1.5" stroke-linecap="round" stroke-linejoin="round"/>
<path d="M8.53055 7.5611C6.72859 8.73968 5.22743 10.4188 3.85714 12C5.88059 14.991 9.5161 18 13.5 18C15.1606 18 16.7608 17.4772 18.2088 16.6508" stroke="black" stroke-width="1.5" stroke-linecap="round" stroke-linejoin="round"/>
<path d="M13.5 6C17.7947 6 20.6802 9.1582 23.1429 12C22.8016 12.5043 22.4146 13.0092 21.9879 13.5" stroke="black" stroke-width="1.5" stroke-linecap="round" stroke-linejoin="round"/>
</svg>
